<svg xmlns="http://www.w3.org/2000/svg" viewBox="0 0 1000 1000" xml:space="preserve"><switch><g><circle fill="#382B73" cx="500" cy="500" r="398"/><circle fill="#473080" cx="500" cy="500" r="344.3"/><path fill="#382B73" d="M692.3 518.5v-.2c0-45.3-15.7-87-41.9-119.9l8.9-8.9 7.2-7.2 2 2c.3.3.6.6.9.8 3.7 3 8.7 3.5 12.9 1.6.4-.2.8-.4 1.1-.6.2-.1.5-.3.7-.4.6-.4 1.1-.9 1.7-1.4.3-.3.6-.6.8-.9l.1-.1.6-.9c3.1-4.7 2.5-11.1-1.6-15.3l-27-27.1c-3.6-3.6-8.8-4.5-13.1-2.7-.7.3-1.5.7-2.1 1.1-.3.2-.6.4-.9.7l-.1.1c-.3.3-.6.5-.9.8-4.8 4.8-4.8 12.5 0 17.3l2 2-15.6 15.5c-29.2-26.1-66.5-43.4-107.7-47.7v-39.8h9.7c.7 0 1.4 0 2.1-.1l2.1-.3c1.4-.3 2.7-.7 3.9-1.2 2.5-1 4.7-2.5 6.5-4.4l.1-.1.1-.1c.9-.9 1.7-1.9 2.4-3 2.3-3.4 3.6-7.4 3.6-11.7 0-.7 0-1.4-.1-2 0-.5-.1-.9-.2-1.4 0-.2 0-.3-.1-.5-.1-.6-.3-1.2-.4-1.8v-.1c-2.5-8.8-10.6-15.3-20.2-15.3h-60c-9.6 0-17.7 6.5-20.2 15.3v.1c-.2.6-.3 1.2-.4 1.8 0 .2 0 .3-.1.5-.1.5-.2.9-.2 1.4-.1.7-.1 1.3-.1 2 0 1.4.1 2.9.4 4.2.3 1.4.7 2.7 1.2 3.9.5 1.3 1.2 2.4 1.9 3.6 1.5 2.2 3.4 4.2 5.7 5.7 1.1.8 2.3 1.4 3.6 1.9 1.3.5 2.6.9 3.9 1.2 1.4.3 2.8.4 4.2.4h9.7v39.8c-27.2 2.9-52.8 11.4-75.4 24.4-1.3.8-2.7 1.6-4 2.4-10.1 6.1-19.5 13.2-28.3 21l-15.5-15.5 2-2c4.8-4.8 4.8-12.5 0-17.3-.3-.3-.6-.6-.9-.8l-.1-.1-.9-.6c-.7-.4-1.4-.8-2.1-1.1-4.4-1.7-9.6-.8-13.1 2.7L314 367.3c-4.2 4.2-4.7 10.6-1.6 15.3l.6.9.1.1c.3.3.5.6.8.9.3.3.6.6.9.8 4.3 3.5 10.5 3.6 15 .3.5-.3.9-.7 1.3-1.1l2-2 7.2 7.2 8.9 8.9c-4.1 5.2-8 10.6-11.6 16.2-1.7 2.6-3.3 5.2-4.8 7.9-6.2 10.7-11.3 22.1-15.4 34-6.6 19.4-10.1 40.1-10.1 61.7V542.8c0 72.3 39.9 135.3 98.9 168.1v4.6c0 3.9 2.7 7.4 6.5 8.4l20.7 5.4-8.2 13.9c-.2.3-.4.7-.5 1-.5 1.2-.7 2.5-.7 3.8V758.3c-.1 2.4.8 4.7 2.5 6.5l13.9 13.9c2.8 2.8 7.1 3.3 10.5 1.3l21.8-12.8c.7.3 1.5.6 2.2.9l6.3 24.5c1 3.8 4.4 6.5 8.4 6.5h19.7c4 0 7.4-2.7 8.4-6.5l6.3-24.5c.7-.3 1.5-.6 2.2-.9L548 780c3.4 2 7.7 1.5 10.5-1.3l13.9-13.9c1.8-1.8 2.6-4.1 2.5-6.5V748c.1-1.3-.2-2.6-.7-3.8-.1-.4-.3-.7-.5-1l-8.2-13.9 20.7-5.4c3.8-1 6.5-4.4 6.5-8.4v-4.6c59-32.8 98.9-95.8 98.9-168.1V518.8c.7-.2.7-.2.7-.3z"/><g><path fill="#1CAEE4" d="M518.4 515c-9.8 9.8-25.7 9.8-35.6 0-9.8-9.8-9.8-25.7 0-35.6 6.1-6.1 46.6-33.1 76.8-52.9 7.7-5 16.7 4 11.7 11.7-19.8 30.2-46.8 70.7-52.9 76.8z"/><path fill="#FFF" d="M479.7 260.7h40.7V322h-40.7zM638.943 389.854l-22.981-22.98 34.506-34.507 22.981 22.98z"/><path fill="#D1D3D4" d="m659.265 369.596-22.98-22.98 14.283-14.284 22.98 22.981z"/><path fill="#FFF" d="m641.5 337.3 27.1 27.1c4.8 4.8 12.5 4.8 17.3 0 4.8-4.8 4.8-12.5 0-17.3L658.7 320c-4.8-4.8-12.5-4.8-17.3 0-4.7 4.8-4.7 12.5.1 17.3z"/><path fill="#E6E7E8" d="m675.4 357.5-27.1-27.1c-3.6-3.6-4.5-8.8-2.7-13.1-1.5.6-2.9 1.5-4.1 2.7-4.8 4.8-4.8 12.5 0 17.3l27.1 27.1c4.8 4.8 12.5 4.8 17.3 0 1.2-1.2 2.1-2.6 2.7-4.1-4.5 1.7-9.7.8-13.2-2.8z"/><path fill="#FFF" d="m326.5 355.356 22.98-22.98 34.507 34.506-22.98 22.98z"/><path fill="#D1D3D4" d="m326.53 355.322 22.982-22.98 14.283 14.283-22.98 22.98z"/><path fill="#FFF" d="m358.5 337.3-27.1 27.1c-4.8 4.8-12.5 4.8-17.3 0-4.8-4.8-4.8-12.5 0-17.3l27.1-27.1c4.8-4.8 12.5-4.8 17.3 0 4.8 4.8 4.8 12.5 0 17.3z"/><path fill="#E6E7E8" d="m324.6 357.5 27.1-27.1c3.6-3.6 4.5-8.8 2.7-13.1 1.5.6 2.9 1.5 4.1 2.7 4.8 4.8 4.8 12.5 0 17.3l-27.1 27.1c-4.8 4.8-12.5 4.8-17.3 0-1.2-1.2-2.1-2.6-2.7-4.1 4.5 1.7 9.7.8 13.2-2.8z"/><path fill="#A72973" d="M692.3 498.5v-.2C692.3 392.1 606.2 306 500 306s-192.3 86.1-192.3 192.3V522.7C307.7 628.9 393.8 715 500 715s192.3-86.1 192.3-192.3V498.5z"/><circle transform="rotate(-45.001 499.997 498.35)" fill="#EF5A9D" cx="500" cy="498.3" r="192.3"/><circle transform="rotate(-45.001 499.997 498.35)" fill="#E43D91" cx="500" cy="498.3" r="160.3"/><circle fill="#FFF" cx="500" cy="498.3" r="136"/><path fill="#E6E7E8" d="M500 372.3c73.4 0 133.3 58.2 135.9 131 .1-1.7.1-3.3.1-5 0-75.1-60.9-136-136-136s-136 60.9-136 136c0 1.7 0 3.3.1 5 2.6-72.8 62.5-131 135.9-131z"/><path fill="#FFF" d="M530 267.3h-60c-11.6 0-21-9.4-21-21s9.4-21 21-21h60c11.6 0 21 9.4 21 21s-9.4 21-21 21z"/><path fill="#E6E7E8" d="M530 252.3h-60c-9 0-16.6-5.6-19.6-13.5-.9 2.3-1.4 4.9-1.4 7.5 0 11.6 9.4 21 21 21h60c11.6 0 21-9.4 21-21 0-2.6-.5-5.2-1.4-7.5-3 7.9-10.6 13.5-19.6 13.5z"/><path fill="#A72973" d="M500 727.5c-26.1 0-47.4-21.2-47.4-47.4 0-26.1 21.2-47.4 47.4-47.4s47.4 21.2 47.4 47.4-21.3 47.4-47.4 47.4zm0-78.3c-17.1 0-30.9 13.9-30.9 30.9S483 711 500 711c17.1 0 30.9-13.9 30.9-30.9s-13.8-30.9-30.9-30.9z"/><path fill="#E7AD27" d="M575.5 617.8v-1.1c-.1-2.1-1-4.1-2.5-5.6l-13.9-13.9c-2.8-2.8-7.1-3.3-10.5-1.3l-21.8 12.8c-.7-.3-1.5-.6-2.2-.9l-6.3-24.5c-1-3.8-4.4-6.5-8.4-6.5h-19.7c-3.9 0-7.4 2.7-8.4 6.5l-6.3 24.5c-.7.3-1.5.6-2.2.9l-21.8-12.8c-3.4-2-7.7-1.5-10.5 1.3l-14 13.9c-1.5 1.5-2.4 3.6-2.5 5.6v11.7c0 1.5.4 2.9 1.2 4.2l8.2 13.9-20.7 5.4c-3.8 1-6.5 4.4-6.5 8.4v30.8c0 3.9 2.7 7.4 6.5 8.4l20.7 5.4-8.2 13.9c-.8 1.4-1.2 2.9-1.2 4.4v10.7c-.1 2.4.8 4.7 2.5 6.5l13.9 13.9c2.8 2.8 7.1 3.3 10.5 1.3l21.8-12.8c.7.3 1.5.6 2.2.9l6.3 24.5c1 3.8 4.4 6.5 8.4 6.5h19.7c4 0 7.4-2.7 8.4-6.5l6.3-24.5c.7-.3 1.5-.6 2.2-.9l21.8 12.8c3.4 2 7.7 1.5 10.5-1.3l13.9-13.9c1.8-1.8 2.6-4.1 2.5-6.5V723.2c0-1.5-.4-3-1.2-4.4l-8.2-13.9 20.7-5.4c3.8-1 6.5-4.4 6.5-8.4v-30.8c0-3.9-2.7-7.4-6.5-8.4l-20.7-5.4 8.2-13.9c.8-1.3 1.2-2.8 1.2-4.2v-.2l.1-10.4zM500 701.1c-17.1 0-30.9-13.9-30.9-30.9s13.9-30.9 30.9-30.9c17.1 0 30.9 13.9 30.9 30.9s-13.8 30.9-30.9 30.9z"/><path fill="#FEDE3A" d="M500 603.1c-37 0-67.1 30-67.1 67.1s30 67.1 67.1 67.1 67.1-30 67.1-67.1-30.1-67.1-67.1-67.1zm0 97.9c-17 0-30.8-13.8-30.8-30.8s13.8-30.8 30.8-30.8 30.8 13.8 30.8 30.8S517 701 500 701z"/><g fill="#FEDE3A"><path d="M516.5 619.9h-33c-5.7 0-9.8-5.4-8.4-10.8l6.7-25.7c1-3.8 4.4-6.5 8.4-6.5h19.7c4 0 7.4 2.7 8.4 6.5l6.7 25.7c1.3 5.4-2.8 10.8-8.5 10.8zM483.5 720.5h33c5.7 0 9.8 5.4 8.4 10.8l-6.7 25.7c-1 3.8-4.4 6.5-8.4 6.5h-19.7c-4 0-7.4-2.7-8.4-6.5l-6.7-25.7c-1.3-5.5 2.8-10.8 8.5-10.8zM550.3 686.7v-33c0-5.7 5.4-9.8 10.8-8.4l25.7 6.7c3.8 1 6.5 4.4 6.5 8.4V680c0 4-2.7 7.4-6.5 8.4l-25.7 6.7c-5.4 1.4-10.8-2.8-10.8-8.4zM449.7 653.7v33c0 5.7-5.4 9.8-10.8 8.4l-25.7-6.7c-3.8-1-6.5-4.4-6.5-8.4v-19.7c0-4 2.7-7.4 6.5-8.4l25.7-6.7c5.4-1.3 10.8 2.8 10.8 8.5z"/><g><path d="M547.2 646.3 523.9 623c-4-4-3.2-10.7 1.7-13.6l22.9-13.5c3.4-2 7.7-1.5 10.5 1.3l13.9 13.9c2.8 2.8 3.3 7.1 1.3 10.5l-13.5 22.9c-2.7 4.9-9.5 5.8-13.5 1.8zM452.8 694.1l23.3 23.3c4 4 3.2 10.7-1.7 13.6l-22.9 13.5c-3.4 2-7.7 1.5-10.5-1.3l-14-14c-2.8-2.8-3.3-7.1-1.3-10.5l13.5-22.9c2.8-4.9 9.6-5.7 13.6-1.7z"/></g><g><path d="m523.9 717.4 23.3-23.3c4-4 10.7-3.2 13.6 1.7l13.5 22.9c2 3.4 1.5 7.7-1.3 10.5l-13.9 13.9c-2.8 2.8-7.1 3.3-10.5 1.3l-23-13.4c-4.8-2.9-5.7-9.6-1.7-13.6zM476.1 622.9l-23.3 23.3c-4 4-10.7 3.2-13.6-1.7l-13.5-22.9c-2-3.4-1.5-7.7 1.3-10.5l13.9-13.9c2.8-2.8 7.1-3.3 10.5-1.3l22.9 13.5c4.9 2.8 5.8 9.5 1.8 13.5z"/></g></g><path fill="#FFF335" d="M500 726.3c-31 0-56.1-25.2-56.1-56.1S469 614 500 614s56.1 25.2 56.1 56.1-25.1 56.2-56.1 56.2zm0-103.5c-26.1 0-47.4 21.2-47.4 47.4 0 26.1 21.2 47.4 47.4 47.4 26.1 0 47.4-21.2 47.4-47.4 0-26.1-21.3-47.4-47.4-47.4z"/><path fill="#F7CB15" d="M500 717.5c-26.1 0-47.4-21.2-47.4-47.4 0-26.1 21.2-47.4 47.4-47.4s47.4 21.2 47.4 47.4-21.3 47.4-47.4 47.4zm0-78.3c-17.1 0-30.9 13.9-30.9 30.9S483 701 500 701c17.1 0 30.9-13.9 30.9-30.9s-13.8-30.9-30.9-30.9z"/><path fill="#E6E7E8" d="M378 503.3c0-4.8 3.9-8.7 8.7-8.7h23.7c4.8 0 8.7 3.9 8.7 8.7 0 4.8-3.9 8.7-8.7 8.7h-23.7c-4.8 0-8.7-3.9-8.7-8.7z"/><path fill="#D1D3D4" d="M378 498.3c0-4.8 3.9-8.7 8.7-8.7h23.7c4.8 0 8.7 3.9 8.7 8.7 0 4.8-3.9 8.7-8.7 8.7h-23.7c-4.8 0-8.7-3.9-8.7-8.7z"/><path fill="#E6E7E8" d="M410.3 489.7h-23.7c-4.8 0-8.7 3.9-8.7 8.7 0 .3 0 .7.1 1 .5-4.3 4.2-7.7 8.6-7.7h23.7c4.4 0 8.1 3.4 8.6 7.7 0-.3.1-.7.1-1 0-4.8-3.9-8.7-8.7-8.7z"/><path fill="#BCBEC0" d="M410.3 502h-23.7c-3.9 0-7.2-2.6-8.3-6.2-.2.8-.4 1.6-.4 2.5 0 4.8 3.9 8.7 8.7 8.7h23.7c4.8 0 8.7-3.9 8.7-8.7 0-.9-.1-1.7-.4-2.5-1 3.6-4.3 6.2-8.3 6.2z"/><path fill="#E6E7E8" d="M581 503.3c0-4.8 3.9-8.7 8.7-8.7h23.7c4.8 0 8.7 3.9 8.7 8.7 0 4.8-3.9 8.7-8.7 8.7h-23.7c-4.8 0-8.7-3.9-8.7-8.7z"/><path fill="#D1D3D4" d="M581 498.3c0-4.8 3.9-8.7 8.7-8.7h23.7c4.8 0 8.7 3.9 8.7 8.7 0 4.8-3.9 8.7-8.7 8.7h-23.7c-4.8 0-8.7-3.9-8.7-8.7z"/><path fill="#E6E7E8" d="M613.3 489.7h-23.7c-4.8 0-8.7 3.9-8.7 8.7 0 .3 0 .7.1 1 .5-4.3 4.2-7.7 8.6-7.7h23.7c4.4 0 8.1 3.4 8.6 7.7 0-.3.1-.7.1-1 0-4.8-3.9-8.7-8.7-8.7z"/><path fill="#BCBEC0" d="M613.3 502h-23.7c-3.9 0-7.2-2.6-8.3-6.2-.2.8-.4 1.6-.4 2.5 0 4.8 3.9 8.7 8.7 8.7h23.7c4.8 0 8.7-3.9 8.7-8.7 0-.9-.1-1.7-.4-2.5-1 3.6-4.3 6.2-8.3 6.2z"/><g><path fill="#E6E7E8" d="M500 422.3c-4.8 0-8.7-3.9-8.7-8.7V390c0-4.8 3.9-8.7 8.7-8.7 4.8 0 8.7 3.9 8.7 8.7v23.7c0 4.8-3.9 8.6-8.7 8.6z"/></g><g><path fill="#D1D3D4" d="M500 417.3c-4.8 0-8.7-3.9-8.7-8.7V385c0-4.8 3.9-8.7 8.7-8.7 4.8 0 8.7 3.9 8.7 8.7v23.7c0 4.8-3.9 8.6-8.7 8.6z"/></g><path fill="#E6E7E8" d="M500 376.3c-4.8 0-8.7 3.9-8.7 8.7v2c0-4.8 3.9-8.7 8.7-8.7 4.8 0 8.7 3.9 8.7 8.7v-2c0-4.8-3.9-8.7-8.7-8.7z"/><path fill="#BCBEC0" d="M500 412.3c-4.8 0-8.7-3.9-8.7-8.7v5c0 4.8 3.9 8.7 8.7 8.7 4.8 0 8.7-3.9 8.7-8.7v-5c0 4.9-3.9 8.7-8.7 8.7z"/><g><path fill="#E6E7E8" d="M413.7 417.1c3.4-3.4 8.9-3.4 12.3 0l16.7 16.7c3.4 3.4 3.4 8.9 0 12.3-3.4 3.4-8.9 3.4-12.3 0l-16.7-16.7c-3.4-3.5-3.4-8.9 0-12.3z"/></g><g><path fill="#D1D3D4" d="M413.7 412.1c3.4-3.4 8.9-3.4 12.3 0l16.7 16.7c3.4 3.4 3.4 8.9 0 12.3-3.4 3.4-8.9 3.4-12.3 0l-16.7-16.7c-3.4-3.5-3.4-8.9 0-12.3z"/></g><path fill="#E6E7E8" d="M413.7 414.1c3.4-3.4 8.9-3.4 12.3 0l16.7 16.7c1.4 1.4 2.3 3.3 2.5 5.1.3-2.5-.5-5.2-2.5-7.1L426 412.1c-3.4-3.4-8.9-3.4-12.3 0-1.9 1.9-2.8 4.6-2.5 7.1.3-1.9 1.1-3.7 2.5-5.1z"/><path fill="#BCBEC0" d="M442.7 436.1c-3.4 3.4-8.9 3.4-12.3 0l-16.7-16.7c-1-1-1.8-2.3-2.2-3.6-.9 3-.2 6.3 2.2 8.6l16.7 16.7c3.4 3.4 8.9 3.4 12.3 0 2.3-2.3 3.1-5.7 2.2-8.6-.4 1.3-1.1 2.5-2.2 3.6z"/><g><path fill="#E6E7E8" d="M557.3 446.1c-3.4-3.4-3.4-8.9 0-12.3l16.7-16.7c3.4-3.4 8.9-3.4 12.3 0 3.4 3.4 3.4 8.9 0 12.3l-16.7 16.7c-3.5 3.3-8.9 3.3-12.3 0z"/></g><g><path fill="#D1D3D4" d="M557.3 441.1c-3.4-3.4-3.4-8.9 0-12.3l16.7-16.7c3.4-3.4 8.9-3.4 12.3 0 3.4 3.4 3.4 8.9 0 12.3l-16.7 16.7c-3.5 3.3-8.9 3.3-12.3 0z"/></g><path fill="#E6E7E8" d="m557.3 430.8 16.7-16.7c3.4-3.4 8.9-3.4 12.3 0 1.4 1.4 2.3 3.3 2.5 5.1.3-2.5-.5-5.2-2.5-7.1-3.4-3.4-8.9-3.4-12.3 0l-16.7 16.7c-1.9 1.9-2.8 4.6-2.5 7.1.2-1.8 1-3.7 2.5-5.1z"/><path fill="#BCBEC0" d="M586.3 419.3 569.6 436c-3.4 3.4-8.9 3.4-12.3 0-1-1-1.8-2.3-2.2-3.6-.9 3-.2 6.3 2.2 8.6 3.4 3.4 8.9 3.4 12.3 0l16.7-16.7c2.3-2.3 3.1-5.7 2.2-8.6-.5 1.3-1.2 2.6-2.2 3.6z"/><path fill="#E6E7E8" d="M475.5 517.2c0 6.5 2.4 12.9 7.4 17.8 9.8 9.8 25.7 9.8 35.6 0 6.1-6.1 33.1-46.6 52.9-76.8 1-1.5 1.4-3 1.4-4.4v-9.9c.2-6.2-6.9-11.4-13.1-7.3-30.2 19.9-70.7 46.9-76.8 52.9-4.9 4.9-7.4 11.4-7.4 17.8v9.9z"/><path fill="#009ADD" d="M475.5 507.2c0 6.5 2.4 12.9 7.4 17.8 9.8 9.8 25.7 9.8 35.6 0 6.1-6.1 33.1-46.6 52.9-76.8 1-1.5 1.4-3 1.4-4.4v-9.9c.2-6.2-6.9-11.4-13.1-7.3-30.2 19.9-70.7 46.9-76.8 52.9-4.9 4.9-7.4 11.4-7.4 17.8v9.9z"/><path fill="#1CAEE4" d="M518.4 515c-9.8 9.8-25.7 9.8-35.6 0-9.8-9.8-9.8-25.7 0-35.6 6.1-6.1 46.6-33.1 76.8-52.9 7.7-5 16.7 4 11.7 11.7-19.8 30.2-46.8 70.7-52.9 76.8z"/><circle transform="rotate(-80.781 500.01 498.333)" fill="#136DA0" cx="500" cy="498.3" r="17.3"/><path fill="#D1D3D4" d="M479.7 267.3h40.7v13h-40.7z"/></g></g></switch></svg>